<svg version="1.1" xmlns="http://www.w3.org/2000/svg" xmlns:xlink="http://www.w3.org/1999/xlink" width="795" height="585"><defs/><g><text fill="#eeeeee" stroke="none" font-family="Arial" font-size="24px" font-style="normal" font-weight="normal" text-decoration="none" x="0" y="0">UNREGISTERED</text><text fill="#eeeeee" stroke="none" font-family="Arial" font-size="24px" font-style="normal" font-weight="normal" text-decoration="none" x="0" y="30">UNREGISTERED</text><text fill="#eeeeee" stroke="none" font-family="Arial" font-size="24px" font-style="normal" font-weight="normal" text-decoration="none" x="0" y="60">UNREGISTERED</text><text fill="#eeeeee" stroke="none" font-family="Arial" font-size="24px" font-style="normal" font-weight="normal" text-decoration="none" x="0" y="90">UNREGISTERED</text><text fill="#eeeeee" stroke="none" font-family="Arial" font-size="24px" font-style="normal" font-weight="normal" text-decoration="none" x="0" y="120">UNREGISTERED</text><text fill="#eeeeee" stroke="none" font-family="Arial" font-size="24px" font-style="normal" font-weight="normal" text-decoration="none" x="0" y="150">UNREGISTERED</text><text fill="#eeeeee" stroke="none" font-family="Arial" font-size="24px" font-style="normal" font-weight="normal" text-decoration="none" x="0" y="180">UNREGISTERED</text><text fill="#eeeeee" stroke="none" font-family="Arial" font-size="24px" font-style="normal" font-weight="normal" text-decoration="none" x="0" y="210">UNREGISTERED</text><text fill="#eeeeee" stroke="none" font-family="Arial" font-size="24px" font-style="normal" font-weight="normal" text-decoration="none" x="0" y="240">UNREGISTERED</text><text fill="#eeeeee" stroke="none" font-family="Arial" font-size="24px" font-style="normal" font-weight="normal" text-decoration="none" x="0" y="270">UNREGISTERED</text><text fill="#eeeeee" stroke="none" font-family="Arial" font-size="24px" font-style="normal" font-weight="normal" text-decoration="none" x="0" y="300">UNREGISTERED</text><text fill="#eeeeee" stroke="none" font-family="Arial" font-size="24px" font-style="normal" font-weight="normal" text-decoration="none" x="0" y="330">UNREGISTERED</text><text fill="#eeeeee" stroke="none" font-family="Arial" font-size="24px" font-style="normal" font-weight="normal" text-decoration="none" x="0" y="360">UNREGISTERED</text><text fill="#eeeeee" stroke="none" font-family="Arial" font-size="24px" font-style="normal" font-weight="normal" text-decoration="none" x="0" y="390">UNREGISTERED</text><text fill="#eeeeee" stroke="none" font-family="Arial" font-size="24px" font-style="normal" font-weight="normal" text-decoration="none" x="0" y="420">UNREGISTERED</text><text fill="#eeeeee" stroke="none" font-family="Arial" font-size="24px" font-style="normal" font-weight="normal" text-decoration="none" x="0" y="450">UNREGISTERED</text><text fill="#eeeeee" stroke="none" font-family="Arial" font-size="24px" font-style="normal" font-weight="normal" text-decoration="none" x="0" y="480">UNREGISTERED</text><text fill="#eeeeee" stroke="none" font-family="Arial" font-size="24px" font-style="normal" font-weight="normal" text-decoration="none" x="0" y="510">UNREGISTERED</text><text fill="#eeeeee" stroke="none" font-family="Arial" font-size="24px" font-style="normal" font-weight="normal" text-decoration="none" x="0" y="540">UNREGISTERED</text><text fill="#eeeeee" stroke="none" font-family="Arial" font-size="24px" font-style="normal" font-weight="normal" text-decoration="none" x="0" y="570">UNREGISTERED</text><text fill="#eeeeee" stroke="none" font-family="Arial" font-size="24px" font-style="normal" font-weight="normal" text-decoration="none" x="200" y="0">UNREGISTERED</text><text fill="#eeeeee" stroke="none" font-family="Arial" font-size="24px" font-style="normal" font-weight="normal" text-decoration="none" x="200" y="30">UNREGISTERED</text><text fill="#eeeeee" stroke="none" font-family="Arial" font-size="24px" font-style="normal" font-weight="normal" text-decoration="none" x="200" y="60">UNREGISTERED</text><text fill="#eeeeee" stroke="none" font-family="Arial" font-size="24px" font-style="normal" font-weight="normal" text-decoration="none" x="200" y="90">UNREGISTERED</text><text fill="#eeeeee" stroke="none" font-family="Arial" font-size="24px" font-style="normal" font-weight="normal" text-decoration="none" x="200" y="120">UNREGISTERED</text><text fill="#eeeeee" stroke="none" font-family="Arial" font-size="24px" font-style="normal" font-weight="normal" text-decoration="none" x="200" y="150">UNREGISTERED</text><text fill="#eeeeee" stroke="none" font-family="Arial" font-size="24px" font-style="normal" font-weight="normal" text-decoration="none" x="200" y="180">UNREGISTERED</text><text fill="#eeeeee" stroke="none" font-family="Arial" font-size="24px" font-style="normal" font-weight="normal" text-decoration="none" x="200" y="210">UNREGISTERED</text><text fill="#eeeeee" stroke="none" font-family="Arial" font-size="24px" font-style="normal" font-weight="normal" text-decoration="none" x="200" y="240">UNREGISTERED</text><text fill="#eeeeee" stroke="none" font-family="Arial" font-size="24px" font-style="normal" font-weight="normal" text-decoration="none" x="200" y="270">UNREGISTERED</text><text fill="#eeeeee" stroke="none" font-family="Arial" font-size="24px" font-style="normal" font-weight="normal" text-decoration="none" x="200" y="300">UNREGISTERED</text><text fill="#eeeeee" stroke="none" font-family="Arial" font-size="24px" font-style="normal" font-weight="normal" text-decoration="none" x="200" y="330">UNREGISTERED</text><text fill="#eeeeee" stroke="none" font-family="Arial" font-size="24px" font-style="normal" font-weight="normal" text-decoration="none" x="200" y="360">UNREGISTERED</text><text fill="#eeeeee" stroke="none" font-family="Arial" font-size="24px" font-style="normal" font-weight="normal" text-decoration="none" x="200" y="390">UNREGISTERED</text><text fill="#eeeeee" stroke="none" font-family="Arial" font-size="24px" font-style="normal" font-weight="normal" text-decoration="none" x="200" y="420">UNREGISTERED</text><text fill="#eeeeee" stroke="none" font-family="Arial" font-size="24px" font-style="normal" font-weight="normal" text-decoration="none" x="200" y="450">UNREGISTERED</text><text fill="#eeeeee" stroke="none" font-family="Arial" font-size="24px" font-style="normal" font-weight="normal" text-decoration="none" x="200" y="480">UNREGISTERED</text><text fill="#eeeeee" stroke="none" font-family="Arial" font-size="24px" font-style="normal" font-weight="normal" text-decoration="none" x="200" y="510">UNREGISTERED</text><text fill="#eeeeee" stroke="none" font-family="Arial" font-size="24px" font-style="normal" font-weight="normal" text-decoration="none" x="200" y="540">UNREGISTERED</text><text fill="#eeeeee" stroke="none" font-family="Arial" font-size="24px" font-style="normal" font-weight="normal" text-decoration="none" x="200" y="570">UNREGISTERED</text><text fill="#eeeeee" stroke="none" font-family="Arial" font-size="24px" font-style="normal" font-weight="normal" text-decoration="none" x="400" y="0">UNREGISTERED</text><text fill="#eeeeee" stroke="none" font-family="Arial" font-size="24px" font-style="normal" font-weight="normal" text-decoration="none" x="400" y="30">UNREGISTERED</text><text fill="#eeeeee" stroke="none" font-family="Arial" font-size="24px" font-style="normal" font-weight="normal" text-decoration="none" x="400" y="60">UNREGISTERED</text><text fill="#eeeeee" stroke="none" font-family="Arial" font-size="24px" font-style="normal" font-weight="normal" text-decoration="none" x="400" y="90">UNREGISTERED</text><text fill="#eeeeee" stroke="none" font-family="Arial" font-size="24px" font-style="normal" font-weight="normal" text-decoration="none" x="400" y="120">UNREGISTERED</text><text fill="#eeeeee" stroke="none" font-family="Arial" font-size="24px" font-style="normal" font-weight="normal" text-decoration="none" x="400" y="150">UNREGISTERED</text><text fill="#eeeeee" stroke="none" font-family="Arial" font-size="24px" font-style="normal" font-weight="normal" text-decoration="none" x="400" y="180">UNREGISTERED</text><text fill="#eeeeee" stroke="none" font-family="Arial" font-size="24px" font-style="normal" font-weight="normal" text-decoration="none" x="400" y="210">UNREGISTERED</text><text fill="#eeeeee" stroke="none" font-family="Arial" font-size="24px" font-style="normal" font-weight="normal" text-decoration="none" x="400" y="240">UNREGISTERED</text><text fill="#eeeeee" stroke="none" font-family="Arial" font-size="24px" font-style="normal" font-weight="normal" text-decoration="none" x="400" y="270">UNREGISTERED</text><text fill="#eeeeee" stroke="none" font-family="Arial" font-size="24px" font-style="normal" font-weight="normal" text-decoration="none" x="400" y="300">UNREGISTERED</text><text fill="#eeeeee" stroke="none" font-family="Arial" font-size="24px" font-style="normal" font-weight="normal" text-decoration="none" x="400" y="330">UNREGISTERED</text><text fill="#eeeeee" stroke="none" font-family="Arial" font-size="24px" font-style="normal" font-weight="normal" text-decoration="none" x="400" y="360">UNREGISTERED</text><text fill="#eeeeee" stroke="none" font-family="Arial" font-size="24px" font-style="normal" font-weight="normal" text-decoration="none" x="400" y="390">UNREGISTERED</text><text fill="#eeeeee" stroke="none" font-family="Arial" font-size="24px" font-style="normal" font-weight="normal" text-decoration="none" x="400" y="420">UNREGISTERED</text><text fill="#eeeeee" stroke="none" font-family="Arial" font-size="24px" font-style="normal" font-weight="normal" text-decoration="none" x="400" y="450">UNREGISTERED</text><text fill="#eeeeee" stroke="none" font-family="Arial" font-size="24px" font-style="normal" font-weight="normal" text-decoration="none" x="400" y="480">UNREGISTERED</text><text fill="#eeeeee" stroke="none" font-family="Arial" font-size="24px" font-style="normal" font-weight="normal" text-decoration="none" x="400" y="510">UNREGISTERED</text><text fill="#eeeeee" stroke="none" font-family="Arial" font-size="24px" font-style="normal" font-weight="normal" text-decoration="none" x="400" y="540">UNREGISTERED</text><text fill="#eeeeee" stroke="none" font-family="Arial" font-size="24px" font-style="normal" font-weight="normal" text-decoration="none" x="400" y="570">UNREGISTERED</text><text fill="#eeeeee" stroke="none" font-family="Arial" font-size="24px" font-style="normal" font-weight="normal" text-decoration="none" x="600" y="0">UNREGISTERED</text><text fill="#eeeeee" stroke="none" font-family="Arial" font-size="24px" font-style="normal" font-weight="normal" text-decoration="none" x="600" y="30">UNREGISTERED</text><text fill="#eeeeee" stroke="none" font-family="Arial" font-size="24px" font-style="normal" font-weight="normal" text-decoration="none" x="600" y="60">UNREGISTERED</text><text fill="#eeeeee" stroke="none" font-family="Arial" font-size="24px" font-style="normal" font-weight="normal" text-decoration="none" x="600" y="90">UNREGISTERED</text><text fill="#eeeeee" stroke="none" font-family="Arial" font-size="24px" font-style="normal" font-weight="normal" text-decoration="none" x="600" y="120">UNREGISTERED</text><text fill="#eeeeee" stroke="none" font-family="Arial" font-size="24px" font-style="normal" font-weight="normal" text-decoration="none" x="600" y="150">UNREGISTERED</text><text fill="#eeeeee" stroke="none" font-family="Arial" font-size="24px" font-style="normal" font-weight="normal" text-decoration="none" x="600" y="180">UNREGISTERED</text><text fill="#eeeeee" stroke="none" font-family="Arial" font-size="24px" font-style="normal" font-weight="normal" text-decoration="none" x="600" y="210">UNREGISTERED</text><text fill="#eeeeee" stroke="none" font-family="Arial" font-size="24px" font-style="normal" font-weight="normal" text-decoration="none" x="600" y="240">UNREGISTERED</text><text fill="#eeeeee" stroke="none" font-family="Arial" font-size="24px" font-style="normal" font-weight="normal" text-decoration="none" x="600" y="270">UNREGISTERED</text><text fill="#eeeeee" stroke="none" font-family="Arial" font-size="24px" font-style="normal" font-weight="normal" text-decoration="none" x="600" y="300">UNREGISTERED</text><text fill="#eeeeee" stroke="none" font-family="Arial" font-size="24px" font-style="normal" font-weight="normal" text-decoration="none" x="600" y="330">UNREGISTERED</text><text fill="#eeeeee" stroke="none" font-family="Arial" font-size="24px" font-style="normal" font-weight="normal" text-decoration="none" x="600" y="360">UNREGISTERED</text><text fill="#eeeeee" stroke="none" font-family="Arial" font-size="24px" font-style="normal" font-weight="normal" text-decoration="none" x="600" y="390">UNREGISTERED</text><text fill="#eeeeee" stroke="none" font-family="Arial" font-size="24px" font-style="normal" font-weight="normal" text-decoration="none" x="600" y="420">UNREGISTERED</text><text fill="#eeeeee" stroke="none" font-family="Arial" font-size="24px" font-style="normal" font-weight="normal" text-decoration="none" x="600" y="450">UNREGISTERED</text><text fill="#eeeeee" stroke="none" font-family="Arial" font-size="24px" font-style="normal" font-weight="normal" text-decoration="none" x="600" y="480">UNREGISTERED</text><text fill="#eeeeee" stroke="none" font-family="Arial" font-size="24px" font-style="normal" font-weight="normal" text-decoration="none" x="600" y="510">UNREGISTERED</text><text fill="#eeeeee" stroke="none" font-family="Arial" font-size="24px" font-style="normal" font-weight="normal" text-decoration="none" x="600" y="540">UNREGISTERED</text><text fill="#eeeeee" stroke="none" font-family="Arial" font-size="24px" font-style="normal" font-weight="normal" text-decoration="none" x="600" y="570">UNREGISTERED</text><g transform="translate(-86,-38) scale(1,1)"><rect fill="#ffffff" stroke="none" x="96" y="48" width="424" height="21"/></g><g transform="translate(-86,-38) scale(1,1)"><path fill="none" stroke="#000000" d="M 96 48 L 520 48 L 520 69 L 96 69 L 96 48 Z Z" stroke-miterlimit="10" stroke-width="2"/></g><g transform="translate(-86,-38) scale(1,1)"><path fill="none" stroke="#000000" d="M 96 536 L 96 48 L 520 48 L 520 536" stroke-miterlimit="10" stroke-width="2"/></g><g transform="translate(-86,-38) scale(1,1)"><g><path fill="none" stroke="none"/><text fill="#000000" stroke="none" font-family="Arial" font-size="13px" font-style="normal" font-weight="normal" text-decoration="none" x="301.5" y="65">UI</text></g></g><g transform="translate(-86,-38) scale(1,1)"><rect fill="#ffffff" stroke="none" x="584" y="48" width="287" height="21"/></g><g transform="translate(-86,-38) scale(1,1)"><path fill="none" stroke="#000000" d="M 584 48 L 871 48 L 871 69 L 584 69 L 584 48 Z Z" stroke-miterlimit="10" stroke-width="2"/></g><g transform="translate(-86,-38) scale(1,1)"><path fill="none" stroke="#000000" d="M 584 415 L 584 48 L 871 48 L 871 415" stroke-miterlimit="10" stroke-width="2"/></g><g transform="translate(-86,-38) scale(1,1)"><g><path fill="none" stroke="none"/><text fill="#000000" stroke="none" font-family="Arial" font-size="13px" font-style="normal" font-weight="normal" text-decoration="none" x="699.32275390625" y="65">Controller</text></g></g><g transform="translate(-86,-38) scale(1,1)"><path fill="#C0C0C0" stroke="none" d="M 127 146 C 127 139.9248672 131.2532944 135 136.5 135 C 141.7467056 135 146 139.9248672 146 146 C 146 152.0751328 141.7467056 157 136.5 157 C 131.2532944 157 127 152.0751328 127 146 Z" opacity="0.2"/></g><g transform="translate(-86,-38) scale(1,1)"><path fill="#000000" stroke="none" d="M 120 139 C 120 132.9248672 124.2532944 128 129.5 128 C 134.7467056 128 139 132.9248672 139 139 C 139 145.0751328 134.7467056 150 129.5 150 C 124.2532944 150 120 145.0751328 120 139 Z"/></g><g transform="translate(-86,-38) scale(1,1)"><path fill="#C0C0C0" stroke="none" d="M 257 207 L 372 207 Q 382 207 382 217 L 382 237 Q 382 247 372 247 L 257 247 Q 247 247 247 237 L 247 217 Q 247 207 257 207 Z" opacity="0.2"/></g><g transform="translate(-86,-38) scale(1,1)"><path fill="#ffffff" stroke="none" d="M 250 200 L 365 200 Q 375 200 375 210 L 375 230 Q 375 240 365 240 L 250 240 Q 240 240 240 230 L 240 210 Q 240 200 250 200 Z"/></g><g transform="translate(-86,-38) scale(1,1)"><path fill="none" stroke="#000000" d="M 250 200 L 365 200 Q 375 200 375 210 L 375 230 Q 375 240 365 240 L 250 240 Q 240 240 240 230 L 240 210 Q 240 200 250 200 Z" stroke-miterlimit="10"/></g><g transform="translate(-86,-38) scale(1,1)"><g><path fill="none" stroke="none"/><text fill="#000000" stroke="none" font-family="Arial" font-size="13px" font-style="normal" font-weight="bold" text-decoration="none" x="274.984130859375" y="219.5">Input Email</text></g></g><g transform="translate(-86,-38) scale(1,1)"><path fill="#C0C0C0" stroke="none" d="M 217 119 L 356 119 Q 366 119 366 129 L 366 164 Q 366 174 356 174 L 217 174 Q 207 174 207 164 L 207 129 Q 207 119 217 119 Z" opacity="0.2"/></g><g transform="translate(-86,-38) scale(1,1)"><path fill="#ffffff" stroke="none" d="M 210 112 L 349 112 Q 359 112 359 122 L 359 157 Q 359 167 349 167 L 210 167 Q 200 167 200 157 L 200 122 Q 200 112 210 112 Z"/></g><g transform="translate(-86,-38) scale(1,1)"><path fill="none" stroke="#000000" d="M 210 112 L 349 112 Q 359 112 359 122 L 359 157 Q 359 167 349 167 L 210 167 Q 200 167 200 157 L 200 122 Q 200 112 210 112 Z" stroke-miterlimit="10"/></g><g transform="translate(-86,-38) scale(1,1)"><g><path fill="none" stroke="none"/><text fill="#000000" stroke="none" font-family="Arial" font-size="13px" font-style="normal" font-weight="bold" text-decoration="none" x="230.359619140625" y="131.5">Input Credentials</text></g></g><g transform="translate(-86,-38) scale(1,1)"><path fill="none" stroke="#000000" d="M 140 139 L 199 139" stroke-miterlimit="10"/></g><g transform="translate(-86,-38) scale(1,1)"><path fill="none" stroke="#000000" d="M 188.83732514237585 143.209517756016 L 199 139 L 188.83732514237585 134.790482243984" stroke-miterlimit="10"/></g><g transform="translate(-86,-38) scale(1,1)"><g><path fill="none" stroke="none"/><text fill="#000000" stroke="none" font-family="Arial" font-size="13px" font-style="normal" font-weight="normal" text-decoration="none" x="155.5" y="130.5">Start</text></g></g><g transform="translate(-86,-38) scale(1,1)"><path fill="#C0C0C0" stroke="none" d="M 154 231 L 153 231 Q 156 231 156 234 L 156 297 Q 156 300 153 300 L 154 300 Q 151 300 151 297 L 151 234 Q 151 231 154 231 Z" opacity="0.2"/></g><g transform="translate(-86,-38) scale(1,1)"><path fill="#000000" stroke="none" d="M 147 224 L 147 224 Q 150 224 150 227 L 150 290 Q 150 293 147 293 L 147 293 Q 144 293 144 290 L 144 227 Q 144 224 147 224 Z"/></g><g transform="translate(-86,-38) scale(1,1)"><path fill="none" stroke="#000000" d="M 150 257 L 239 236" stroke-miterlimit="10"/></g><g transform="translate(-86,-38) scale(1,1)"><path fill="none" stroke="#000000" d="M 230.07564804609711 242.43085858986728 L 239 236 L 228.14222649795295 234.23683393344677" stroke-miterlimit="10"/></g><g transform="translate(-86,-38) scale(1,1)"><path fill="none" stroke="#000000" d="M 150 259 L 247 283" stroke-miterlimit="10"/></g><g transform="translate(-86,-38) scale(1,1)"><path fill="none" stroke="#000000" d="M 236.1237608860867 284.6454247892208 L 247 283 L 238.1458465423551 276.472828595136" stroke-miterlimit="10"/></g><g transform="translate(-86,-38) scale(1,1)"><path fill="none" stroke="#000000" d="M 247 168 L 150 254" stroke-miterlimit="10"/></g><g transform="translate(-86,-38) scale(1,1)"><path fill="none" stroke="#000000" d="M 154.8117041117828 244.1082102963795 L 150 254 L 160.39694018400613 250.4078370290035" stroke-miterlimit="10"/></g><g transform="translate(-86,-38) scale(1,1)"><path fill="#C0C0C0" stroke="none" d="M 265 287 L 381 287 Q 391 287 391 297 L 391 317 Q 391 327 381 327 L 265 327 Q 255 327 255 317 L 255 297 Q 255 287 265 287 Z" opacity="0.2"/></g><g transform="translate(-86,-38) scale(1,1)"><path fill="#ffffff" stroke="none" d="M 258 280 L 374 280 Q 384 280 384 290 L 384 310 Q 384 320 374 320 L 258 320 Q 248 320 248 310 L 248 290 Q 248 280 258 280 Z"/></g><g transform="translate(-86,-38) scale(1,1)"><path fill="none" stroke="#000000" d="M 258 280 L 374 280 Q 384 280 384 290 L 384 310 Q 384 320 374 320 L 258 320 Q 248 320 248 310 L 248 290 Q 248 280 258 280 Z" stroke-miterlimit="10"/></g><g transform="translate(-86,-38) scale(1,1)"><g><path fill="none" stroke="none"/><text fill="#000000" stroke="none" font-family="Arial" font-size="13px" font-style="normal" font-weight="bold" text-decoration="none" x="271.1982421875" y="299.5">Input Password</text></g></g><g transform="translate(-86,-38) scale(1,1)"><path fill="#C0C0C0" stroke="none" d="M 138 359 L 201 359 Q 204 359 204 362 L 204 361 Q 204 364 201 364 L 138 364 Q 135 364 135 361 L 135 362 Q 135 359 138 359 Z" opacity="0.2"/></g><g transform="translate(-86,-38) scale(1,1)"><path fill="#000000" stroke="none" d="M 131 352 L 194 352 Q 197 352 197 355 L 197 355 Q 197 358 194 358 L 131 358 Q 128 358 128 355 L 128 355 Q 128 352 131 352 Z"/></g><g transform="translate(-86,-38) scale(1,1)"><path fill="none" stroke="#000000" d="M 164 358 L 187 407" stroke-miterlimit="10"/></g><g transform="translate(-86,-38) scale(1,1)"><path fill="none" stroke="#000000" d="M 178.87119593236702 399.5890254061943 L 187 407 L 186.49241791132113 396.0117171303587" stroke-miterlimit="10"/></g><g transform="translate(-86,-38) scale(1,1)"><path fill="none" stroke="#000000" d="M 256 321 L 171 351" stroke-miterlimit="10"/></g><g transform="translate(-86,-38) scale(1,1)"><path fill="none" stroke="#000000" d="M 179.18229195892005 343.648122804413 L 171 351 L 181.98431634925083 351.5871919103502" stroke-miterlimit="10"/></g><g transform="translate(-86,-38) scale(1,1)"><path fill="none" stroke="#000000" d="M 273 241 L 248 256 L 165 351" stroke-miterlimit="10"/></g><g transform="translate(-86,-38) scale(1,1)"><path fill="none" stroke="#000000" d="M 168.51641183095992 340.5771957787223 L 165 351 L 174.85651419496165 346.1164431072711" stroke-miterlimit="10"/></g><g transform="translate(-86,-38) scale(1,1)"><path fill="#C0C0C0" stroke="none" d="M 145 415 L 268 415 Q 278 415 278 425 L 278 452 Q 278 462 268 462 L 145 462 Q 135 462 135 452 L 135 425 Q 135 415 145 415 Z" opacity="0.2"/></g><g transform="translate(-86,-38) scale(1,1)"><path fill="#ffffff" stroke="none" d="M 138 408 L 261 408 Q 271 408 271 418 L 271 445 Q 271 455 261 455 L 138 455 Q 128 455 128 445 L 128 418 Q 128 408 138 408 Z"/></g><g transform="translate(-86,-38) scale(1,1)"><path fill="none" stroke="#000000" d="M 138 408 L 261 408 Q 271 408 271 418 L 271 445 Q 271 455 261 455 L 138 455 Q 128 455 128 445 L 128 418 Q 128 408 138 408 Z" stroke-miterlimit="10"/></g><g transform="translate(-86,-38) scale(1,1)"><g><path fill="none" stroke="none"/><text fill="#000000" stroke="none" font-family="Arial" font-size="13px" font-style="normal" font-weight="bold" text-decoration="none" x="183.595947265625" y="427.5">Login</text></g></g><g transform="translate(-86,-38) scale(1,1)"><path fill="none" stroke="#000000" d="M 695 173 L 655 176" stroke-miterlimit="10"/></g><g transform="translate(-86,-38) scale(1,1)"><path fill="none" stroke="#000000" d="M 664.8193827395489 171.0422058721394 L 655 176 L 665.4490419697382 179.4376622746641" stroke-miterlimit="10"/></g><g transform="translate(-86,-38) scale(1,1)"><path fill="#C0C0C0" stroke="none" d="M 295 483.5 C 295 476.59644 300.59644 471 307.5 471 C 314.40356 471 320 476.59644 320 483.5 C 320 490.40356 314.40356 496 307.5 496 C 300.59644 496 295 490.40356 295 483.5 Z" opacity="0.2"/></g><g transform="translate(-86,-38) scale(1,1)"><path fill="none" stroke="#000000" d="M 288 476.5 C 288 469.59644 293.59644 464 300.5 464 C 307.40356 464 313 469.59644 313 476.5 C 313 483.40356 307.40356 489 300.5 489 C 293.59644 489 288 483.40356 288 476.5 Z" stroke-miterlimit="10"/></g><g transform="translate(-86,-38) scale(1,1)"><path fill="#000000" stroke="none" d="M 293 476.5 C 293 472.357864 296.357864 469 300.5 469 C 304.642136 469 308 472.357864 308 476.5 C 308 480.642136 304.642136 484 300.5 484 C 296.357864 484 293 480.642136 293 476.5 Z"/></g><g transform="translate(-86,-38) scale(1,1)"><path fill="none" stroke="#000000" d="M 651 187 L 728 279" stroke-miterlimit="10"/></g><g transform="translate(-86,-38) scale(1,1)"><path fill="none" stroke="#000000" d="M 718.2492830994122 273.9084854979494 L 728 279 L 724.7054463890737 268.5049575272545" stroke-miterlimit="10"/></g><g transform="translate(-86,-38) scale(1,1)"><g><path fill="none" stroke="none"/><text fill="#000000" stroke="none" font-family="Arial" font-size="13px" font-style="normal" font-weight="normal" text-decoration="none" x="704.36279296875" y="236.5">Valid Credentials</text></g></g><g transform="translate(-86,-38) scale(1,1)"><path fill="none" stroke="#000000" d="M 703 317 L 314 470" stroke-miterlimit="10"/></g><g transform="translate(-86,-38) scale(1,1)"><path fill="none" stroke="#000000" d="M 321.9166686249695 462.36283050584683 L 314 470 L 324.99822440750944 470.197635730736" stroke-miterlimit="10"/></g><g transform="translate(-86,-38) scale(1,1)"><g><path fill="none" stroke="none"/><text fill="#000000" stroke="none" font-family="Arial" font-size="13px" font-style="normal" font-weight="normal" text-decoration="none" x="501.5" y="412.5">End</text></g></g><g transform="translate(-86,-38) scale(1,1)"><path fill="#C0C0C0" stroke="none" d="M 713 143 L 828 143 Q 838 143 838 153 L 838 196 Q 838 206 828 206 L 713 206 Q 703 206 703 196 L 703 153 Q 703 143 713 143 Z" opacity="0.2"/></g><g transform="translate(-86,-38) scale(1,1)"><path fill="#ffffff" stroke="none" d="M 706 136 L 821 136 Q 831 136 831 146 L 831 189 Q 831 199 821 199 L 706 199 Q 696 199 696 189 L 696 146 Q 696 136 706 136 Z"/></g><g transform="translate(-86,-38) scale(1,1)"><path fill="none" stroke="#000000" d="M 706 136 L 821 136 Q 831 136 831 146 L 831 189 Q 831 199 821 199 L 706 199 Q 696 199 696 189 L 696 146 Q 696 136 706 136 Z" stroke-miterlimit="10"/></g><g transform="translate(-86,-38) scale(1,1)"><g><path fill="none" stroke="none"/><text fill="#000000" stroke="none" font-family="Arial" font-size="13px" font-style="normal" font-weight="bold" text-decoration="none" x="722.782958984375" y="155.5">Validate Login</text></g></g><g transform="translate(-86,-38) scale(1,1)"><path fill="#C0C0C0" stroke="none" d="M 639 184.5 L 650.5 175 L 661 184.5 L 650.5 193 L 639 184.5" opacity="0.2"/></g><g transform="translate(-86,-38) scale(1,1)"><path fill="#ffffff" stroke="none" d="M 632 177 L 643 168 L 654 177 L 643 186 L 632 177"/></g><g transform="translate(-86,-38) scale(1,1)"><path fill="none" stroke="#000000" d="M 632 177 L 643 168 L 654 177 L 643 186 L 632 177 L 632 177" stroke-miterlimit="10"/></g><g transform="translate(-86,-38) scale(1,1)"><path fill="#C0C0C0" stroke="none" d="M 417 247 L 476 247 Q 486 247 486 257 L 486 277 Q 486 287 476 287 L 417 287 Q 407 287 407 277 L 407 257 Q 407 247 417 247 Z" opacity="0.2"/></g><g transform="translate(-86,-38) scale(1,1)"><path fill="#ffffff" stroke="none" d="M 410 240 L 469 240 Q 479 240 479 250 L 479 270 Q 479 280 469 280 L 410 280 Q 400 280 400 270 L 400 250 Q 400 240 410 240 Z"/></g><g transform="translate(-86,-38) scale(1,1)"><path fill="none" stroke="#000000" d="M 410 240 L 469 240 Q 479 240 479 250 L 479 270 Q 479 280 469 280 L 410 280 Q 400 280 400 270 L 400 250 Q 400 240 410 240 Z" stroke-miterlimit="10"/></g><g transform="translate(-86,-38) scale(1,1)"><g><path fill="none" stroke="none"/><text fill="#000000" stroke="none" font-family="Arial" font-size="13px" font-style="normal" font-weight="bold" text-decoration="none" x="419.266845703125" y="259.5">Cancel</text></g></g><g transform="translate(-86,-38) scale(1,1)"><path fill="none" stroke="#000000" d="M 425 281 L 308 463" stroke-miterlimit="10"/></g><g transform="translate(-86,-38) scale(1,1)"><path fill="none" stroke="#000000" d="M 309.95458784923505 452.1750479751815 L 308 463 L 317.03649930538717 456.7277053398507" stroke-miterlimit="10"/></g><g transform="translate(-86,-38) scale(1,1)"><path fill="none" stroke="#000000" d="M 250 407 L 695 199" stroke-miterlimit="10"/></g><g transform="translate(-86,-38) scale(1,1)"><path fill="none" stroke="#000000" d="M 687.575889130343 207.11680835027173 L 695 199 L 684.0109106337161 199.4898110858535" stroke-miterlimit="10"/></g><g transform="translate(-86,-38) scale(1,1)"><path fill="#C0C0C0" stroke="none" d="M 721 287 L 783 287 Q 793 287 793 297 L 793 317 Q 793 327 783 327 L 721 327 Q 711 327 711 317 L 711 297 Q 711 287 721 287 Z" opacity="0.2"/></g><g transform="translate(-86,-38) scale(1,1)"><path fill="#ffffff" stroke="none" d="M 714 280 L 776 280 Q 786 280 786 290 L 786 310 Q 786 320 776 320 L 714 320 Q 704 320 704 310 L 704 290 Q 704 280 714 280 Z"/></g><g transform="translate(-86,-38) scale(1,1)"><path fill="none" stroke="#000000" d="M 714 280 L 776 280 Q 786 280 786 290 L 786 310 Q 786 320 776 320 L 714 320 Q 704 320 704 310 L 704 290 Q 704 280 714 280 Z" stroke-miterlimit="10"/></g><g transform="translate(-86,-38) scale(1,1)"><g><path fill="none" stroke="none"/><text fill="#000000" stroke="none" font-family="Arial" font-size="13px" font-style="normal" font-weight="bold" text-decoration="none" x="712.474609375" y="299.5">Save Login</text></g></g><g transform="translate(-86,-38) scale(1,1)"><g><path fill="none" stroke="none"/><text fill="#000000" stroke="none" font-family="Roboto" font-size="26px" font-style="normal" font-weight="normal" text-decoration="none" x="309" y="607">Login Activity</text></g></g><g transform="translate(-86,-38) scale(1,1)"><path fill="#C0C0C0" stroke="none" d="M 447 144.5 L 458.5 135 L 469 144.5 L 458.5 153 L 447 144.5" opacity="0.2"/></g><g transform="translate(-86,-38) scale(1,1)"><path fill="#ffffff" stroke="none" d="M 440 137 L 451 128 L 462 137 L 451 146 L 440 137"/></g><g transform="translate(-86,-38) scale(1,1)"><path fill="none" stroke="#000000" d="M 440 137 L 451 128 L 462 137 L 451 146 L 440 137 L 440 137" stroke-miterlimit="10"/></g><g transform="translate(-86,-38) scale(1,1)"><path fill="none" stroke="#000000" d="M 631 175 L 463 140" stroke-miterlimit="10"/></g><g transform="translate(-86,-38) scale(1,1)"><path fill="none" stroke="#000000" d="M 473.80760875187315 137.95168531069208 L 463 140 L 472.09051064367424 146.19375623004694" stroke-miterlimit="10"/></g><g transform="translate(-86,-38) scale(1,1)"><g><path fill="none" stroke="none"/><text fill="#000000" stroke="none" font-family="Arial" font-size="13px" font-style="normal" font-weight="normal" text-decoration="none" x="493.27734375" y="177.5">Invalid credenials</text></g></g><g transform="translate(-86,-38) scale(1,1)"><path fill="none" stroke="#000000" d="M 450 147 L 441 239" stroke-miterlimit="10"/></g><g transform="translate(-86,-38) scale(1,1)"><path fill="none" stroke="#000000" d="M 437.79993272942403 228.4757627609509 L 441 239 L 446.1789702512702 229.29545121417496" stroke-miterlimit="10"/></g><g transform="translate(-86,-38) scale(1,1)"><g><path fill="none" stroke="none"/><text fill="#000000" stroke="none" font-family="Arial" font-size="13px" font-style="normal" font-weight="normal" text-decoration="none" x="450.69091796875" y="200.5">No</text></g></g><g transform="translate(-86,-38) scale(1,1)"><path fill="none" stroke="#000000" d="M 439 137 L 360 138" stroke-miterlimit="10"/></g><g transform="translate(-86,-38) scale(1,1)"><path fill="none" stroke="#000000" d="M 370.10858000258816 133.6621883015425 L 360 138 L 370.21514153548645 142.08054940050718" stroke-miterlimit="10"/></g><g transform="translate(-86,-38) scale(1,1)"><g><path fill="none" stroke="none"/><text fill="#000000" stroke="none" font-family="Arial" font-size="13px" font-style="normal" font-weight="normal" text-decoration="none" x="388.799560546875" y="157.5">Yes</text></g></g><g transform="translate(-86,-38) scale(1,1)"><g><path fill="none" stroke="none"/><text fill="#000000" stroke="none" font-family="Arial" font-size="13px" font-style="normal" font-weight="normal" text-decoration="none" x="429" y="122">again?</text></g></g><g transform="translate(-86,-38) scale(1,1)"><g><path fill="none" stroke="none"/><text fill="#000000" stroke="none" font-family="Arial" font-size="13px" font-style="normal" font-weight="normal" text-decoration="none" x="621" y="154">valid?</text></g></g></g></svg>