<svg version="1.1" xmlns="http://www.w3.org/2000/svg" xmlns:xlink="http://www.w3.org/1999/xlink" width="700" height="564"><defs/><g><text fill="#eeeeee" stroke="none" font-family="Arial" font-size="24px" font-style="normal" font-weight="normal" text-decoration="none" x="0" y="0">UNREGISTERED</text><text fill="#eeeeee" stroke="none" font-family="Arial" font-size="24px" font-style="normal" font-weight="normal" text-decoration="none" x="0" y="30">UNREGISTERED</text><text fill="#eeeeee" stroke="none" font-family="Arial" font-size="24px" font-style="normal" font-weight="normal" text-decoration="none" x="0" y="60">UNREGISTERED</text><text fill="#eeeeee" stroke="none" font-family="Arial" font-size="24px" font-style="normal" font-weight="normal" text-decoration="none" x="0" y="90">UNREGISTERED</text><text fill="#eeeeee" stroke="none" font-family="Arial" font-size="24px" font-style="normal" font-weight="normal" text-decoration="none" x="0" y="120">UNREGISTERED</text><text fill="#eeeeee" stroke="none" font-family="Arial" font-size="24px" font-style="normal" font-weight="normal" text-decoration="none" x="0" y="150">UNREGISTERED</text><text fill="#eeeeee" stroke="none" font-family="Arial" font-size="24px" font-style="normal" font-weight="normal" text-decoration="none" x="0" y="180">UNREGISTERED</text><text fill="#eeeeee" stroke="none" font-family="Arial" font-size="24px" font-style="normal" font-weight="normal" text-decoration="none" x="0" y="210">UNREGISTERED</text><text fill="#eeeeee" stroke="none" font-family="Arial" font-size="24px" font-style="normal" font-weight="normal" text-decoration="none" x="0" y="240">UNREGISTERED</text><text fill="#eeeeee" stroke="none" font-family="Arial" font-size="24px" font-style="normal" font-weight="normal" text-decoration="none" x="0" y="270">UNREGISTERED</text><text fill="#eeeeee" stroke="none" font-family="Arial" font-size="24px" font-style="normal" font-weight="normal" text-decoration="none" x="0" y="300">UNREGISTERED</text><text fill="#eeeeee" stroke="none" font-family="Arial" font-size="24px" font-style="normal" font-weight="normal" text-decoration="none" x="0" y="330">UNREGISTERED</text><text fill="#eeeeee" stroke="none" font-family="Arial" font-size="24px" font-style="normal" font-weight="normal" text-decoration="none" x="0" y="360">UNREGISTERED</text><text fill="#eeeeee" stroke="none" font-family="Arial" font-size="24px" font-style="normal" font-weight="normal" text-decoration="none" x="0" y="390">UNREGISTERED</text><text fill="#eeeeee" stroke="none" font-family="Arial" font-size="24px" font-style="normal" font-weight="normal" text-decoration="none" x="0" y="420">UNREGISTERED</text><text fill="#eeeeee" stroke="none" font-family="Arial" font-size="24px" font-style="normal" font-weight="normal" text-decoration="none" x="0" y="450">UNREGISTERED</text><text fill="#eeeeee" stroke="none" font-family="Arial" font-size="24px" font-style="normal" font-weight="normal" text-decoration="none" x="0" y="480">UNREGISTERED</text><text fill="#eeeeee" stroke="none" font-family="Arial" font-size="24px" font-style="normal" font-weight="normal" text-decoration="none" x="0" y="510">UNREGISTERED</text><text fill="#eeeeee" stroke="none" font-family="Arial" font-size="24px" font-style="normal" font-weight="normal" text-decoration="none" x="0" y="540">UNREGISTERED</text><text fill="#eeeeee" stroke="none" font-family="Arial" font-size="24px" font-style="normal" font-weight="normal" text-decoration="none" x="200" y="0">UNREGISTERED</text><text fill="#eeeeee" stroke="none" font-family="Arial" font-size="24px" font-style="normal" font-weight="normal" text-decoration="none" x="200" y="30">UNREGISTERED</text><text fill="#eeeeee" stroke="none" font-family="Arial" font-size="24px" font-style="normal" font-weight="normal" text-decoration="none" x="200" y="60">UNREGISTERED</text><text fill="#eeeeee" stroke="none" font-family="Arial" font-size="24px" font-style="normal" font-weight="normal" text-decoration="none" x="200" y="90">UNREGISTERED</text><text fill="#eeeeee" stroke="none" font-family="Arial" font-size="24px" font-style="normal" font-weight="normal" text-decoration="none" x="200" y="120">UNREGISTERED</text><text fill="#eeeeee" stroke="none" font-family="Arial" font-size="24px" font-style="normal" font-weight="normal" text-decoration="none" x="200" y="150">UNREGISTERED</text><text fill="#eeeeee" stroke="none" font-family="Arial" font-size="24px" font-style="normal" font-weight="normal" text-decoration="none" x="200" y="180">UNREGISTERED</text><text fill="#eeeeee" stroke="none" font-family="Arial" font-size="24px" font-style="normal" font-weight="normal" text-decoration="none" x="200" y="210">UNREGISTERED</text><text fill="#eeeeee" stroke="none" font-family="Arial" font-size="24px" font-style="normal" font-weight="normal" text-decoration="none" x="200" y="240">UNREGISTERED</text><text fill="#eeeeee" stroke="none" font-family="Arial" font-size="24px" font-style="normal" font-weight="normal" text-decoration="none" x="200" y="270">UNREGISTERED</text><text fill="#eeeeee" stroke="none" font-family="Arial" font-size="24px" font-style="normal" font-weight="normal" text-decoration="none" x="200" y="300">UNREGISTERED</text><text fill="#eeeeee" stroke="none" font-family="Arial" font-size="24px" font-style="normal" font-weight="normal" text-decoration="none" x="200" y="330">UNREGISTERED</text><text fill="#eeeeee" stroke="none" font-family="Arial" font-size="24px" font-style="normal" font-weight="normal" text-decoration="none" x="200" y="360">UNREGISTERED</text><text fill="#eeeeee" stroke="none" font-family="Arial" font-size="24px" font-style="normal" font-weight="normal" text-decoration="none" x="200" y="390">UNREGISTERED</text><text fill="#eeeeee" stroke="none" font-family="Arial" font-size="24px" font-style="normal" font-weight="normal" text-decoration="none" x="200" y="420">UNREGISTERED</text><text fill="#eeeeee" stroke="none" font-family="Arial" font-size="24px" font-style="normal" font-weight="normal" text-decoration="none" x="200" y="450">UNREGISTERED</text><text fill="#eeeeee" stroke="none" font-family="Arial" font-size="24px" font-style="normal" font-weight="normal" text-decoration="none" x="200" y="480">UNREGISTERED</text><text fill="#eeeeee" stroke="none" font-family="Arial" font-size="24px" font-style="normal" font-weight="normal" text-decoration="none" x="200" y="510">UNREGISTERED</text><text fill="#eeeeee" stroke="none" font-family="Arial" font-size="24px" font-style="normal" font-weight="normal" text-decoration="none" x="200" y="540">UNREGISTERED</text><text fill="#eeeeee" stroke="none" font-family="Arial" font-size="24px" font-style="normal" font-weight="normal" text-decoration="none" x="400" y="0">UNREGISTERED</text><text fill="#eeeeee" stroke="none" font-family="Arial" font-size="24px" font-style="normal" font-weight="normal" text-decoration="none" x="400" y="30">UNREGISTERED</text><text fill="#eeeeee" stroke="none" font-family="Arial" font-size="24px" font-style="normal" font-weight="normal" text-decoration="none" x="400" y="60">UNREGISTERED</text><text fill="#eeeeee" stroke="none" font-family="Arial" font-size="24px" font-style="normal" font-weight="normal" text-decoration="none" x="400" y="90">UNREGISTERED</text><text fill="#eeeeee" stroke="none" font-family="Arial" font-size="24px" font-style="normal" font-weight="normal" text-decoration="none" x="400" y="120">UNREGISTERED</text><text fill="#eeeeee" stroke="none" font-family="Arial" font-size="24px" font-style="normal" font-weight="normal" text-decoration="none" x="400" y="150">UNREGISTERED</text><text fill="#eeeeee" stroke="none" font-family="Arial" font-size="24px" font-style="normal" font-weight="normal" text-decoration="none" x="400" y="180">UNREGISTERED</text><text fill="#eeeeee" stroke="none" font-family="Arial" font-size="24px" font-style="normal" font-weight="normal" text-decoration="none" x="400" y="210">UNREGISTERED</text><text fill="#eeeeee" stroke="none" font-family="Arial" font-size="24px" font-style="normal" font-weight="normal" text-decoration="none" x="400" y="240">UNREGISTERED</text><text fill="#eeeeee" stroke="none" font-family="Arial" font-size="24px" font-style="normal" font-weight="normal" text-decoration="none" x="400" y="270">UNREGISTERED</text><text fill="#eeeeee" stroke="none" font-family="Arial" font-size="24px" font-style="normal" font-weight="normal" text-decoration="none" x="400" y="300">UNREGISTERED</text><text fill="#eeeeee" stroke="none" font-family="Arial" font-size="24px" font-style="normal" font-weight="normal" text-decoration="none" x="400" y="330">UNREGISTERED</text><text fill="#eeeeee" stroke="none" font-family="Arial" font-size="24px" font-style="normal" font-weight="normal" text-decoration="none" x="400" y="360">UNREGISTERED</text><text fill="#eeeeee" stroke="none" font-family="Arial" font-size="24px" font-style="normal" font-weight="normal" text-decoration="none" x="400" y="390">UNREGISTERED</text><text fill="#eeeeee" stroke="none" font-family="Arial" font-size="24px" font-style="normal" font-weight="normal" text-decoration="none" x="400" y="420">UNREGISTERED</text><text fill="#eeeeee" stroke="none" font-family="Arial" font-size="24px" font-style="normal" font-weight="normal" text-decoration="none" x="400" y="450">UNREGISTERED</text><text fill="#eeeeee" stroke="none" font-family="Arial" font-size="24px" font-style="normal" font-weight="normal" text-decoration="none" x="400" y="480">UNREGISTERED</text><text fill="#eeeeee" stroke="none" font-family="Arial" font-size="24px" font-style="normal" font-weight="normal" text-decoration="none" x="400" y="510">UNREGISTERED</text><text fill="#eeeeee" stroke="none" font-family="Arial" font-size="24px" font-style="normal" font-weight="normal" text-decoration="none" x="400" y="540">UNREGISTERED</text><text fill="#eeeeee" stroke="none" font-family="Arial" font-size="24px" font-style="normal" font-weight="normal" text-decoration="none" x="600" y="0">UNREGISTERED</text><text fill="#eeeeee" stroke="none" font-family="Arial" font-size="24px" font-style="normal" font-weight="normal" text-decoration="none" x="600" y="30">UNREGISTERED</text><text fill="#eeeeee" stroke="none" font-family="Arial" font-size="24px" font-style="normal" font-weight="normal" text-decoration="none" x="600" y="60">UNREGISTERED</text><text fill="#eeeeee" stroke="none" font-family="Arial" font-size="24px" font-style="normal" font-weight="normal" text-decoration="none" x="600" y="90">UNREGISTERED</text><text fill="#eeeeee" stroke="none" font-family="Arial" font-size="24px" font-style="normal" font-weight="normal" text-decoration="none" x="600" y="120">UNREGISTERED</text><text fill="#eeeeee" stroke="none" font-family="Arial" font-size="24px" font-style="normal" font-weight="normal" text-decoration="none" x="600" y="150">UNREGISTERED</text><text fill="#eeeeee" stroke="none" font-family="Arial" font-size="24px" font-style="normal" font-weight="normal" text-decoration="none" x="600" y="180">UNREGISTERED</text><text fill="#eeeeee" stroke="none" font-family="Arial" font-size="24px" font-style="normal" font-weight="normal" text-decoration="none" x="600" y="210">UNREGISTERED</text><text fill="#eeeeee" stroke="none" font-family="Arial" font-size="24px" font-style="normal" font-weight="normal" text-decoration="none" x="600" y="240">UNREGISTERED</text><text fill="#eeeeee" stroke="none" font-family="Arial" font-size="24px" font-style="normal" font-weight="normal" text-decoration="none" x="600" y="270">UNREGISTERED</text><text fill="#eeeeee" stroke="none" font-family="Arial" font-size="24px" font-style="normal" font-weight="normal" text-decoration="none" x="600" y="300">UNREGISTERED</text><text fill="#eeeeee" stroke="none" font-family="Arial" font-size="24px" font-style="normal" font-weight="normal" text-decoration="none" x="600" y="330">UNREGISTERED</text><text fill="#eeeeee" stroke="none" font-family="Arial" font-size="24px" font-style="normal" font-weight="normal" text-decoration="none" x="600" y="360">UNREGISTERED</text><text fill="#eeeeee" stroke="none" font-family="Arial" font-size="24px" font-style="normal" font-weight="normal" text-decoration="none" x="600" y="390">UNREGISTERED</text><text fill="#eeeeee" stroke="none" font-family="Arial" font-size="24px" font-style="normal" font-weight="normal" text-decoration="none" x="600" y="420">UNREGISTERED</text><text fill="#eeeeee" stroke="none" font-family="Arial" font-size="24px" font-style="normal" font-weight="normal" text-decoration="none" x="600" y="450">UNREGISTERED</text><text fill="#eeeeee" stroke="none" font-family="Arial" font-size="24px" font-style="normal" font-weight="normal" text-decoration="none" x="600" y="480">UNREGISTERED</text><text fill="#eeeeee" stroke="none" font-family="Arial" font-size="24px" font-style="normal" font-weight="normal" text-decoration="none" x="600" y="510">UNREGISTERED</text><text fill="#eeeeee" stroke="none" font-family="Arial" font-size="24px" font-style="normal" font-weight="normal" text-decoration="none" x="600" y="540">UNREGISTERED</text><g transform="translate(-78,-22) scale(1,1)"><g><path fill="none" stroke="none"/><text fill="#000000" stroke="none" font-family="Roboto" font-size="24px" font-style="normal" font-weight="normal" text-decoration="none" x="93" y="61">Overall Interfaces</text></g></g><g transform="translate(-78,-22) scale(1,1)"><rect fill="#C0C0C0" stroke="none" x="95" y="135" width="272" height="15" opacity="0.2"/></g><g transform="translate(-78,-22) scale(1,1)"><rect fill="#C0C0C0" stroke="none" x="95" y="149" width="680" height="122" opacity="0.2"/></g><g transform="translate(-78,-22) scale(1,1)"><rect fill="#ffffff" stroke="none" x="88" y="143" width="680" height="121"/></g><g transform="translate(-78,-22) scale(1,1)"><path fill="none" stroke="#000000" d="M 88 143 L 768 143 L 768 264 L 88 264 L 88 143 Z Z" stroke-miterlimit="10"/></g><g transform="translate(-78,-22) scale(1,1)"><rect fill="#ffffff" stroke="none" x="88" y="128" width="272" height="15"/></g><g transform="translate(-78,-22) scale(1,1)"><path fill="none" stroke="#000000" d="M 88 128 L 360 128 L 360 143 L 88 143 L 88 128 Z Z" stroke-miterlimit="10"/></g><g transform="translate(-78,-22) scale(1,1)"><rect fill="#ffffff" stroke="none" x="88" y="142" width="680" height="122"/></g><g transform="translate(-78,-22) scale(1,1)"><path fill="none" stroke="#000000" d="M 88 142 L 768 142 L 768 264 L 88 264 L 88 142 Z Z" stroke-miterlimit="10"/></g><g transform="translate(-78,-22) scale(1,1)"><g><path fill="none" stroke="none"/><text fill="#000000" stroke="none" font-family="Arial" font-size="13px" font-style="normal" font-weight="bold" text-decoration="none" x="366" y="162.5">Controllers Interfaces</text></g></g><g transform="translate(-78,-22) scale(1,1)"><rect fill="#C0C0C0" stroke="none" x="95" y="295" width="271.6" height="15" opacity="0.2"/></g><g transform="translate(-78,-22) scale(1,1)"><rect fill="#C0C0C0" stroke="none" x="95" y="309" width="679" height="114" opacity="0.2"/></g><g transform="translate(-78,-22) scale(1,1)"><rect fill="#ffffff" stroke="none" x="88" y="303" width="679" height="113"/></g><g transform="translate(-78,-22) scale(1,1)"><path fill="none" stroke="#000000" d="M 88 303 L 767 303 L 767 416 L 88 416 L 88 303 Z Z" stroke-miterlimit="10"/></g><g transform="translate(-78,-22) scale(1,1)"><rect fill="#ffffff" stroke="none" x="88" y="288" width="271.6" height="15"/></g><g transform="translate(-78,-22) scale(1,1)"><path fill="none" stroke="#000000" d="M 88 288 L 359.6 288 L 359.6 303 L 88 303 L 88 288 Z Z" stroke-miterlimit="10"/></g><g transform="translate(-78,-22) scale(1,1)"><rect fill="#ffffff" stroke="none" x="88" y="302" width="679" height="114"/></g><g transform="translate(-78,-22) scale(1,1)"><path fill="none" stroke="#000000" d="M 88 302 L 767 302 L 767 416 L 88 416 L 88 302 Z Z" stroke-miterlimit="10"/></g><g transform="translate(-78,-22) scale(1,1)"><g><path fill="none" stroke="none"/><text fill="#000000" stroke="none" font-family="Arial" font-size="13px" font-style="normal" font-weight="bold" text-decoration="none" x="378.5" y="322.5">Server Interfaces</text></g></g><g transform="translate(-78,-22) scale(1,1)"><rect fill="#C0C0C0" stroke="none" x="111" y="199" width="199" height="55" opacity="0.2"/></g><g transform="translate(-78,-22) scale(1,1)"><rect fill="#ffffff" stroke="none" x="104" y="192" width="199" height="55"/></g><g transform="translate(-78,-22) scale(1,1)"><path fill="none" stroke="#000000" d="M 104 192 L 303 192 L 303 247 L 104 247 L 104 192 Z Z" stroke-miterlimit="10"/></g><g transform="translate(-78,-22) scale(1,1)"><g><path fill="none" stroke="none"/><text fill="#000000" stroke="none" font-family="Arial" font-size="13px" font-style="normal" font-weight="bold" text-decoration="none" x="138" y="211.5">Registration Controller</text></g></g><g transform="translate(-78,-22) scale(1,1)"><rect fill="#C0C0C0" stroke="none" x="319" y="199" width="223" height="55" opacity="0.2"/></g><g transform="translate(-78,-22) scale(1,1)"><rect fill="#ffffff" stroke="none" x="312" y="192" width="223" height="55"/></g><g transform="translate(-78,-22) scale(1,1)"><path fill="none" stroke="#000000" d="M 312 192 L 535 192 L 535 247 L 312 247 L 312 192 Z Z" stroke-miterlimit="10"/></g><g transform="translate(-78,-22) scale(1,1)"><g><path fill="none" stroke="none"/><text fill="#000000" stroke="none" font-family="Arial" font-size="13px" font-style="normal" font-weight="bold" text-decoration="none" x="376.5" y="211.5">Login Controller</text></g></g><g transform="translate(-78,-22) scale(1,1)"><rect fill="#C0C0C0" stroke="none" x="551" y="199" width="215" height="55" opacity="0.2"/></g><g transform="translate(-78,-22) scale(1,1)"><rect fill="#ffffff" stroke="none" x="544" y="192" width="215" height="55"/></g><g transform="translate(-78,-22) scale(1,1)"><path fill="none" stroke="#000000" d="M 544 192 L 759 192 L 759 247 L 544 247 L 544 192 Z Z" stroke-miterlimit="10"/></g><g transform="translate(-78,-22) scale(1,1)"><g><path fill="none" stroke="none"/><text fill="#000000" stroke="none" font-family="Arial" font-size="13px" font-style="normal" font-weight="bold" text-decoration="none" x="588.5" y="211.5">User Panel Controller</text></g></g><g transform="translate(-78,-22) scale(1,1)"><rect fill="#C0C0C0" stroke="none" x="351" y="351" width="183" height="55" opacity="0.2"/></g><g transform="translate(-78,-22) scale(1,1)"><rect fill="#ffffff" stroke="none" x="344" y="344" width="183" height="55"/></g><g transform="translate(-78,-22) scale(1,1)"><path fill="none" stroke="#000000" d="M 344 344 L 527 344 L 527 399 L 344 399 L 344 344 Z Z" stroke-miterlimit="10"/></g><g transform="translate(-78,-22) scale(1,1)"><g><path fill="none" stroke="none"/><text fill="#000000" stroke="none" font-family="Arial" font-size="13px" font-style="normal" font-weight="bold" text-decoration="none" x="387" y="363.5">Database REST</text></g></g><g transform="translate(-78,-22) scale(1,1)"><rect fill="#C0C0C0" stroke="none" x="551" y="351" width="207" height="55" opacity="0.2"/></g><g transform="translate(-78,-22) scale(1,1)"><rect fill="#ffffff" stroke="none" x="544" y="344" width="207" height="55"/></g><g transform="translate(-78,-22) scale(1,1)"><path fill="none" stroke="#000000" d="M 544 344 L 751 344 L 751 399 L 544 399 L 544 344 Z Z" stroke-miterlimit="10"/></g><g transform="translate(-78,-22) scale(1,1)"><g><path fill="none" stroke="none"/><text fill="#000000" stroke="none" font-family="Arial" font-size="13px" font-style="normal" font-weight="bold" text-decoration="none" x="594" y="363.5">File System REST</text></g></g><g transform="translate(-78,-22) scale(1,1)"><rect fill="#C0C0C0" stroke="none" x="95" y="455" width="92.4" height="15" opacity="0.2"/></g><g transform="translate(-78,-22) scale(1,1)"><rect fill="#C0C0C0" stroke="none" x="95" y="469" width="231" height="113" opacity="0.2"/></g><g transform="translate(-78,-22) scale(1,1)"><rect fill="#ffffff" stroke="none" x="88" y="463" width="231" height="112"/></g><g transform="translate(-78,-22) scale(1,1)"><path fill="none" stroke="#000000" d="M 88 463 L 319 463 L 319 575 L 88 575 L 88 463 Z Z" stroke-miterlimit="10"/></g><g transform="translate(-78,-22) scale(1,1)"><rect fill="#ffffff" stroke="none" x="88" y="448" width="92.4" height="15"/></g><g transform="translate(-78,-22) scale(1,1)"><path fill="none" stroke="#000000" d="M 88 448 L 180.4 448 L 180.4 463 L 88 463 L 88 448 Z Z" stroke-miterlimit="10"/></g><g transform="translate(-78,-22) scale(1,1)"><rect fill="#ffffff" stroke="none" x="88" y="462" width="231" height="113"/></g><g transform="translate(-78,-22) scale(1,1)"><path fill="none" stroke="#000000" d="M 88 462 L 319 462 L 319 575 L 88 575 L 88 462 Z Z" stroke-miterlimit="10"/></g><g transform="translate(-78,-22) scale(1,1)"><g><path fill="none" stroke="none"/><text fill="#000000" stroke="none" font-family="Arial" font-size="13px" font-style="normal" font-weight="bold" text-decoration="none" x="176.5" y="482.5">Business</text></g></g><g transform="translate(-78,-22) scale(1,1)"><rect fill="#C0C0C0" stroke="none" x="119" y="495" width="175" height="71" opacity="0.2"/></g><g transform="translate(-78,-22) scale(1,1)"><rect fill="#ffffff" stroke="none" x="112" y="488" width="175" height="71"/></g><g transform="translate(-78,-22) scale(1,1)"><path fill="none" stroke="#000000" d="M 112 488 L 287 488 L 287 559 L 112 559 L 112 488 Z Z" stroke-miterlimit="10"/></g><g transform="translate(-78,-22) scale(1,1)"><g><path fill="none" stroke="none"/><text fill="#000000" stroke="none" font-family="Arial" font-size="13px" font-style="normal" font-weight="bold" text-decoration="none" x="172.5" y="507.5">Business</text></g></g><g transform="translate(-78,-22) scale(1,1)"><rect fill="#C0C0C0" stroke="none" x="103" y="351" width="232" height="55" opacity="0.2"/></g><g transform="translate(-78,-22) scale(1,1)"><rect fill="#ffffff" stroke="none" x="96" y="344" width="232" height="55"/></g><g transform="translate(-78,-22) scale(1,1)"><path fill="none" stroke="#000000" d="M 96 344 L 328 344 L 328 399 L 96 399 L 96 344 Z Z" stroke-miterlimit="10"/></g><g transform="translate(-78,-22) scale(1,1)"><g><path fill="none" stroke="none"/><text fill="#000000" stroke="none" font-family="Arial" font-size="13px" font-style="normal" font-weight="bold" text-decoration="none" x="180.5" y="363.5">Server API</text></g></g><g transform="translate(-78,-22) scale(1,1)"><rect fill="#C0C0C0" stroke="none" x="343" y="455" width="73.19999999999999" height="15" opacity="0.2"/></g><g transform="translate(-78,-22) scale(1,1)"><rect fill="#C0C0C0" stroke="none" x="343" y="469" width="183" height="114" opacity="0.2"/></g><g transform="translate(-78,-22) scale(1,1)"><rect fill="#ffffff" stroke="none" x="336" y="463" width="183" height="113"/></g><g transform="translate(-78,-22) scale(1,1)"><path fill="none" stroke="#000000" d="M 336 463 L 519 463 L 519 576 L 336 576 L 336 463 Z Z" stroke-miterlimit="10"/></g><g transform="translate(-78,-22) scale(1,1)"><rect fill="#ffffff" stroke="none" x="336" y="448" width="73.19999999999999" height="15"/></g><g transform="translate(-78,-22) scale(1,1)"><path fill="none" stroke="#000000" d="M 336 448 L 409.2 448 L 409.2 463 L 336 463 L 336 448 Z Z" stroke-miterlimit="10"/></g><g transform="translate(-78,-22) scale(1,1)"><rect fill="#ffffff" stroke="none" x="336" y="462" width="183" height="114"/></g><g transform="translate(-78,-22) scale(1,1)"><path fill="none" stroke="#000000" d="M 336 462 L 519 462 L 519 576 L 336 576 L 336 462 Z Z" stroke-miterlimit="10"/></g><g transform="translate(-78,-22) scale(1,1)"><g><path fill="none" stroke="none"/><text fill="#000000" stroke="none" font-family="Arial" font-size="13px" font-style="normal" font-weight="bold" text-decoration="none" x="398" y="482.5">Database</text></g></g><g transform="translate(-78,-22) scale(1,1)"><rect fill="#C0C0C0" stroke="none" x="351" y="495" width="160" height="72" opacity="0.2"/></g><g transform="translate(-78,-22) scale(1,1)"><rect fill="#ffffff" stroke="none" x="344" y="488" width="160" height="72"/></g><g transform="translate(-78,-22) scale(1,1)"><path fill="none" stroke="#000000" d="M 344 488 L 504 488 L 504 560 L 344 560 L 344 488 Z Z" stroke-miterlimit="10"/></g><g transform="translate(-78,-22) scale(1,1)"><g><path fill="none" stroke="none"/><text fill="#000000" stroke="none" font-family="Arial" font-size="13px" font-style="normal" font-weight="bold" text-decoration="none" x="394.5" y="507.5">Database</text></g></g></g></svg>